<?xml version="1.0" encoding="utf-8"?>
<!-- Designed by Vexels.com - 2016 All Rights Reserved - https://vexels.com/terms-and-conditions/  -->

<svg version="1.1" id="Layer_1" xmlns="http://www.w3.org/2000/svg" xmlns:xlink="http://www.w3.org/1999/xlink" x="0px" y="0px"
	 width="1200px" height="1200px" viewBox="0 0 1200 1200" enable-background="new 0 0 1200 1200" xml:space="preserve">
<g>
	<path fill="#424241" d="M772.87,299.892c3.985-8.737-1.951-15.49-1.951-15.49c0-2.785-3.977-8.754-3.977-8.754
		c5.136-11.122-0.808-15.491-0.808-15.491c-7.962-3.168-6.37,8.354-6.37,8.354c-2.393,1.201-9.137,19.059-9.137,19.059
		s3.177-13.923,4.361-19.459c1.209-5.57,7.169-17.475,2.009-20.66c-5.185-3.184-17.891,37.734-19.884,42.102
		c-1.951,4.351-2.759,13.906-5.143,15.507c-2.377,1.584-6.362,8.737-6.362,8.737c-2.384-14.69-19.466-61.593-19.466-61.593
		s-42.902-18.659-47.671-20.643c-4.76-1.984-13.531-23.027-13.531-23.027c0.409-3.985-5.544-15.89-5.544-15.89
		c-1.584-2.801,1.592-7.553,1.592-7.553c11.914-3.985,14.682-13.54,16.283-19.075c1.601-5.553,3.593-26.211,2.409-30.98
		c-1.193-4.786-1.984-21.843-5.57-24.244c-3.593-2.384-4.385-11.121-4.76-15.507c-0.4-4.351-5.177-21.826-8.362-26.995
		c-3.176-5.152-19.058-13.489-25.428-13.873c-6.361-0.4-21.034-7.937-32.981-2.384c-11.914,5.502-29.763,14.256-34.932,34.932
		c-5.168,20.676,7.538,44.886,7.538,44.886c-7.946-1.601-2.368,25.028,15.089,30.214c17.516,5.152,12.305,25.811,12.305,25.811
		s-2.776,19.842-7.895,14.29c-0.675-0.701-1.617-0.867-2.801-0.651c-8.17,1.4-27.02,22.093-27.02,22.093
		c-3.577-2.752-51.632,15.106-51.632,15.106c-11.938,8.354-26.228,167.591-30.996,185.915
		c-4.761,18.258,7.537,154.502,9.545,157.686c1.959,3.185,8.721,1.184,8.721,1.184l4.377,44.903l17.091-4.368
		c4.76,5.152,9.529,3.585,9.529,3.585c3.959,3.168,11.13,2.351,11.13,2.351s11.105,83.436,14.298,101.728
		c3.16,18.258-2.409,68.297-17.875,84.204c-15.507,15.89-24.227,43.669-29.404,52.84c-5.152,9.121-26.603,134.627-26.603,134.627
		c-13.915,1.601-18.283,38.134-18.283,38.134c-2.768,15.906-18.267,61.977-18.267,61.977c-6.744,23.86,34.958,46.487,34.958,46.487
		c11.905,1.201,17.474-30.613,17.474-30.613c-1.192-3.151,5.161-29.763,5.161-29.763c3.977-4.369,11.906-32.182,11.906-32.182
		l29.012,14.69c-3.184-28.596,78.26-223.632,78.26-223.632c5.161,3.168-6.361,39.335-7.17,60.36
		c-0.791,21.043-14.69,129.107-17.474,129.891c-2.768,0.833-2.376,29.446,1.183,33.798c3.586,4.368,9.154,23.444,7.987,30.963
		c-1.234,7.554,1.167,32.965,5.561,39.751c4.36,6.736,33.764,6.736,33.764,6.736c12.305-4.335,11.096-29.38,11.096-29.38
		c-13.914-14.307-12.705-59.592-12.705-59.592l5.952,0.8c0.784-3.184,26.62-15.106,26.62-15.106s9.521-88.606,7.945-100.094
		c-1.585-11.522,16.282-119.586,17.482-141.029c1.184-21.443,27.012-111.599,27.012-111.599
		c12.305-43.719,19.867-131.492,19.867-131.492c0.376-2.801,16.691-7.953,16.691-7.953c-2.418-9.938-11.13-49.272-36.158-91.373
		c-22.951-38.6-20.509-78.868-19.967-85.304c-0.075,7.253,9.221,45.186,9.221,45.186c-0.409,4.369-7.146,6.336,8.728,23.844
		c15.916,17.458,27.429,7.153,27.429,7.153c35.749-28.629,19.067-60.426,25.828-70.314c6.753-9.938-0.792-25.044-0.792-25.044
		l2.768-5.936C770.502,342.011,772.87,299.892,772.87,299.892z M539.291,472.686l-30.588,15.89l-0.375-2.384
		c-2.384-38.151,17.466-127.523,17.466-127.523s21.851,59.593,21.851,69.914C547.645,438.937,539.291,472.686,539.291,472.686z"/>
	<path fill="#FFFFFF" d="M646.247,212.954c0,0-8.937,37.517-25.769,71.949c0,0-30.606-43.619-48.596-83.387
		c0,0-21.051,8.971-28.437,26.194c0,0,15.656-9.72,18.116-4.802c0,0,49.739,97.944,63.503,178.279
		c0,0,16.833-126.989,30.414-170.392L646.247,212.954z"/>
</g>
</svg>
